<svg width="106" height="106" viewBox="0 0 106 106" fill="none" xmlns="http://www.w3.org/2000/svg">
<g filter="url(#filter0_d_5_1275)">
<rect x="20" y="12" width="66" height="66" rx="24" fill="url(#paint0_linear_5_1275)"/>
</g>
<path fill-rule="evenodd" clip-rule="evenodd" d="M53.1934 45.7498C55.837 45.7498 57.98 43.6068 57.98 40.9632C57.98 38.3197 55.837 36.1766 53.1934 36.1766C50.5499 36.1766 48.4069 38.3197 48.4069 40.9632C48.4069 43.6068 50.5499 45.7498 53.1934 45.7498Z" fill="white"/>
<path fill-rule="evenodd" clip-rule="evenodd" d="M57.3476 45.2141C56.2714 46.2402 54.8064 46.8716 53.1924 46.8716C51.5784 46.8716 50.1134 46.2402 49.0372 45.2141C48.8519 45.1682 48.6665 45.1228 48.4865 45.0998C48.3066 45.0768 48.1324 45.0768 47.9701 45.1019C47.8083 45.1265 47.6587 45.1767 47.4841 45.2392C47.3094 45.3012 47.1102 45.376 46.8608 45.5255C46.6119 45.6751 46.3123 45.8994 46.026 46.2739C45.7392 46.6472 45.4652 47.1713 45.2158 47.7946C44.9664 48.4174 44.742 49.1407 44.6176 49.8388C44.4932 50.5364 44.4681 51.21 44.4558 51.7207C44.443 52.2319 44.443 52.5812 44.4932 52.9177C44.5428 53.2542 44.6422 53.5779 44.867 53.9022C45.0913 54.2264 45.4401 54.5506 45.8513 54.7996C46.2626 55.049 46.7363 55.2237 47.3847 55.3107C48.0326 55.3978 48.8551 55.3978 49.8522 55.3978H52.7438H53.1924H53.641H56.5326C57.5298 55.3978 58.3523 55.3978 59.0001 55.3107C59.6485 55.2237 60.1222 55.049 60.5335 54.7996C60.9447 54.5506 61.2935 54.2264 61.5178 53.9022C61.7427 53.5779 61.842 53.2542 61.8917 52.9177C61.9419 52.5812 61.9419 52.2319 61.9291 51.7207C61.9168 51.21 61.8917 50.5364 61.7672 49.8388C61.6428 49.1407 61.4185 48.4174 61.169 47.7946C60.9196 47.1713 60.6456 46.6472 60.3588 46.2739C60.0726 45.8994 59.7729 45.6751 59.524 45.5255C59.2746 45.376 59.0754 45.3012 58.9008 45.2392C58.7261 45.1767 58.5766 45.1265 58.4147 45.1019C58.2524 45.0768 58.0783 45.0768 57.8983 45.0998C57.7183 45.1228 57.533 45.1682 57.3476 45.2141Z" fill="white"/>
<path fill-rule="evenodd" clip-rule="evenodd" d="M58.2929 43.3221C59.1436 44.0988 60.2763 44.5731 61.519 44.5731C64.1618 44.5731 66.3043 42.4301 66.3043 39.7866C66.3043 37.143 64.1618 35 61.519 35C59.8218 35 58.3303 35.884 57.4812 37.2167C58.4392 38.0917 59.0406 39.3523 59.0406 40.7523C59.0406 41.6978 58.7661 42.5802 58.2929 43.3221Z" fill="white"/>
<path fill-rule="evenodd" clip-rule="evenodd" d="M47.707 43.3221C46.8563 44.0988 45.7236 44.5731 44.4809 44.5731C41.838 44.5731 39.6955 42.4301 39.6955 39.7866C39.6955 37.143 41.838 35 44.4809 35C46.1781 35 47.6696 35.884 48.5187 37.2167C47.5606 38.0917 46.9593 39.3523 46.9593 40.7523C46.9593 41.6978 47.2338 42.5802 47.707 43.3221Z" fill="white"/>
<path fill-rule="evenodd" clip-rule="evenodd" d="M65.4096 44.2142C64.3651 45.2093 62.9551 45.8338 61.3976 45.8701L61.5696 46.0763C61.8565 46.4496 62.1306 46.9737 62.3802 47.597C62.6297 48.2198 62.8541 48.9431 62.9786 49.6412C63.1031 50.3388 63.1282 51.0124 63.1405 51.5231C63.1533 52.0343 63.1533 52.3836 63.1031 52.7201C63.0534 53.0566 62.954 53.3803 62.729 53.7046C62.5618 53.946 62.3257 54.188 62.0462 54.3979H64.5943C65.5918 54.3979 66.4146 54.3979 67.0627 54.3108C67.7113 54.2238 68.1853 54.0491 68.5967 53.7996C69.0081 53.5507 69.357 53.2265 69.5814 52.9023C69.8063 52.578 69.9057 52.2543 69.9554 51.9178C70.0056 51.5813 70.0056 51.232 69.9928 50.7208C69.9805 50.2101 69.9554 49.5365 69.8309 48.8389C69.7064 48.1408 69.482 47.4175 69.2325 46.7947C68.983 46.1713 68.7089 45.6473 68.422 45.274C68.1356 44.8995 67.8358 44.6752 67.5869 44.5256C67.3373 44.376 67.138 44.3013 66.9633 44.2393C66.7886 44.1768 66.639 44.1266 66.4771 44.102C66.3147 44.0769 66.1405 44.0769 65.9605 44.0999C65.7804 44.1229 65.595 44.1683 65.4096 44.2142Z" fill="white"/>
<path fill-rule="evenodd" clip-rule="evenodd" d="M40.5903 44.2142C41.6348 45.2093 43.0448 45.8338 44.6023 45.8701L44.4303 46.0763C44.1433 46.4496 43.8692 46.9737 43.6197 47.597C43.3702 48.2198 43.1458 48.9431 43.0213 49.6412C42.8968 50.3388 42.8717 51.0124 42.8594 51.5231C42.8466 52.0343 42.8466 52.3836 42.8968 52.7201C42.9465 53.0566 43.0459 53.3803 43.2708 53.7046C43.4381 53.946 43.6742 54.188 43.9537 54.3979H41.4056C40.4081 54.3979 39.5853 54.3979 38.9372 54.3108C38.2885 54.2238 37.8146 54.0491 37.4032 53.7996C36.9918 53.5507 36.6429 53.2265 36.4185 52.9023C36.1936 52.578 36.0942 52.2543 36.0445 51.9178C35.9943 51.5813 35.9943 51.232 36.0071 50.7208C36.0194 50.2101 36.0445 49.5365 36.169 48.8389C36.2935 48.1408 36.5179 47.4175 36.7674 46.7947C37.0169 46.1713 37.291 45.6473 37.5779 45.274C37.8643 44.8995 38.164 44.6752 38.413 44.5256C38.6625 44.376 38.8618 44.3013 39.0365 44.2393C39.2113 44.1768 39.3609 44.1266 39.5228 44.102C39.6852 44.0769 39.8594 44.0769 40.0394 44.0999C40.2195 44.1229 40.4049 44.1683 40.5903 44.2142Z" fill="white"/>
<defs>
<filter id="filter0_d_5_1275" x="0" y="0" width="106" height="106" filterUnits="userSpaceOnUse" color-interpolation-filters="sRGB">
<feFlood flood-opacity="0" result="BackgroundImageFix"/>
<feColorMatrix in="SourceAlpha" type="matrix" values="0 0 0 0 0 0 0 0 0 0 0 0 0 0 0 0 0 0 127 0" result="hardAlpha"/>
<feMorphology radius="2" operator="erode" in="SourceAlpha" result="effect1_dropShadow_5_1275"/>
<feOffset dy="8"/>
<feGaussianBlur stdDeviation="11"/>
<feColorMatrix type="matrix" values="0 0 0 0 0.971137 0 0 0 0 0.341921 0 0 0 0 0.36709 0 0 0 0.3 0"/>
<feBlend mode="normal" in2="BackgroundImageFix" result="effect1_dropShadow_5_1275"/>
<feBlend mode="normal" in="SourceGraphic" in2="effect1_dropShadow_5_1275" result="shape"/>
</filter>
<linearGradient id="paint0_linear_5_1275" x1="33.5" y1="12" x2="65" y2="78" gradientUnits="userSpaceOnUse">
<stop stop-color="#FF858A"/>
<stop offset="1" stop-color="#F04148"/>
</linearGradient>
</defs>
</svg>
