<svg width="106" height="106" viewBox="0 0 106 106" fill="none" xmlns="http://www.w3.org/2000/svg">
<g filter="url(#filter0_d_5_1267)">
<rect x="20" y="12" width="66" height="66" rx="24" fill="url(#paint0_linear_5_1267)"/>
</g>
<path fill-rule="evenodd" clip-rule="evenodd" d="M43.9787 28C41.7813 28 40 29.7813 40 31.9787V58.0213C40 60.2187 41.7813 62 43.9787 62H62.7872C64.9846 62 66.766 60.2187 66.766 58.0213V31.9787C66.766 29.7813 64.9846 28 62.7872 28H43.9787ZM46.8723 32.3404C45.474 32.3404 44.3404 33.474 44.3404 34.8723C44.3404 36.2707 45.474 37.4043 46.8723 37.4043C48.2707 37.4043 49.4043 36.2707 49.4043 34.8723C49.4043 33.474 48.2707 32.3404 46.8723 32.3404ZM44.3404 45C44.3404 43.6017 45.474 42.4681 46.8723 42.4681C48.2707 42.4681 49.4043 43.6017 49.4043 45C49.4043 46.3983 48.2707 47.5319 46.8723 47.5319C45.474 47.5319 44.3404 46.3983 44.3404 45ZM46.8723 52.5957C45.474 52.5957 44.3404 53.7293 44.3404 55.1277C44.3404 56.526 45.474 57.6596 46.8723 57.6596C48.2707 57.6596 49.4043 56.526 49.4043 55.1277C49.4043 53.7293 48.2707 52.5957 46.8723 52.5957ZM54.1064 33.7872C53.5071 33.7872 53.0213 34.2731 53.0213 34.8723C53.0213 35.4716 53.5071 35.9574 54.1064 35.9574H62.7872C63.3865 35.9574 63.8723 35.4716 63.8723 34.8723C63.8723 34.2731 63.3865 33.7872 62.7872 33.7872H54.1064ZM53.0213 45C53.0213 44.4007 53.5071 43.9149 54.1064 43.9149H62.7872C63.3865 43.9149 63.8723 44.4007 63.8723 45C63.8723 45.5993 63.3865 46.0851 62.7872 46.0851H54.1064C53.5071 46.0851 53.0213 45.5993 53.0213 45ZM54.1064 54.0426C53.5071 54.0426 53.0213 54.5284 53.0213 55.1277C53.0213 55.7269 53.5071 56.2128 54.1064 56.2128H62.7872C63.3865 56.2128 63.8723 55.7269 63.8723 55.1277C63.8723 54.5284 63.3865 54.0426 62.7872 54.0426H54.1064Z" fill="white"/>
<defs>
<filter id="filter0_d_5_1267" x="0" y="0" width="106" height="106" filterUnits="userSpaceOnUse" color-interpolation-filters="sRGB">
<feFlood flood-opacity="0" result="BackgroundImageFix"/>
<feColorMatrix in="SourceAlpha" type="matrix" values="0 0 0 0 0 0 0 0 0 0 0 0 0 0 0 0 0 0 127 0" result="hardAlpha"/>
<feMorphology radius="2" operator="erode" in="SourceAlpha" result="effect1_dropShadow_5_1267"/>
<feOffset dy="8"/>
<feGaussianBlur stdDeviation="11"/>
<feColorMatrix type="matrix" values="0 0 0 0 0.971137 0 0 0 0 0.341921 0 0 0 0 0.36709 0 0 0 0.3 0"/>
<feBlend mode="normal" in2="BackgroundImageFix" result="effect1_dropShadow_5_1267"/>
<feBlend mode="normal" in="SourceGraphic" in2="effect1_dropShadow_5_1267" result="shape"/>
</filter>
<linearGradient id="paint0_linear_5_1267" x1="33.5" y1="12" x2="65" y2="78" gradientUnits="userSpaceOnUse">
<stop stop-color="#FF858A"/>
<stop offset="1" stop-color="#F04148"/>
</linearGradient>
</defs>
</svg>
