<svg width="106" height="106" viewBox="0 0 106 106" fill="none" xmlns="http://www.w3.org/2000/svg">
<g filter="url(#filter0_d_5_1248)">
<rect x="20" y="10" width="66" height="66" rx="24" fill="url(#paint0_linear_5_1248)"/>
</g>
<path fill-rule="evenodd" clip-rule="evenodd" d="M47.6349 43.3045C51.1525 43.3045 54.0042 40.4528 54.0042 36.9352C54.0042 33.4176 51.1525 30.5659 47.6349 30.5659C44.1173 30.5659 41.2656 33.4176 41.2656 36.9352C41.2656 40.4528 44.1173 43.3045 47.6349 43.3045Z" fill="white"/>
<path fill-rule="evenodd" clip-rule="evenodd" d="M53.1641 42.5915C51.7321 43.9569 49.7827 44.797 47.635 44.797C45.4873 44.797 43.5378 43.9569 42.1058 42.5915C41.8592 42.5304 41.6126 42.47 41.3731 42.4394C41.1336 42.4088 40.9019 42.4088 40.6859 42.4422C40.4705 42.4749 40.2715 42.5417 40.0391 42.6249C39.8067 42.7074 39.5416 42.8069 39.2098 43.0059C38.8786 43.2049 38.4799 43.5034 38.099 44.0017C37.7173 44.4985 37.3527 45.1958 37.0208 46.0253C36.6889 46.854 36.3905 47.8164 36.2249 48.7454C36.0593 49.6737 36.0259 50.57 36.0095 51.2495C35.9925 51.9297 35.9925 52.3945 36.0593 52.8423C36.1254 53.2901 36.2576 53.7208 36.5568 54.1523C36.8552 54.5837 37.3193 55.0152 37.8666 55.3464C38.4138 55.6783 39.0442 55.9107 39.9069 56.0266C40.769 56.1425 41.8635 56.1425 43.1903 56.1425H47.038H47.635H48.2319H52.0796C53.4064 56.1425 54.5009 56.1425 55.363 56.0266C56.2257 55.9107 56.8561 55.6783 57.4034 55.3464C57.9506 55.0152 58.4147 54.5837 58.7132 54.1523C59.0124 53.7208 59.1445 53.2901 59.2106 52.8423C59.2774 52.3945 59.2774 51.9297 59.2604 51.2495C59.244 50.57 59.2106 49.6737 59.045 48.7454C58.8795 47.8164 58.581 46.854 58.2491 46.0253C57.9172 45.1958 57.5526 44.4985 57.171 44.0017C56.79 43.5034 56.3913 43.2049 56.0602 43.0059C55.7283 42.8069 55.4632 42.7074 55.2308 42.6249C54.9984 42.5417 54.7994 42.4749 54.5841 42.4422C54.368 42.4088 54.1363 42.4088 53.8968 42.4394C53.6573 42.47 53.4107 42.5304 53.1641 42.5915Z" fill="white"/>
<path fill-rule="evenodd" clip-rule="evenodd" d="M54.4239 40.0739C55.5558 41.1074 57.063 41.7385 58.7166 41.7385C62.2333 41.7385 65.0843 38.8869 65.0843 35.3693C65.0843 31.8516 62.2333 29 58.7166 29C56.4583 29 54.4736 30.1763 53.3438 31.9497C54.6186 33.114 55.4187 34.7914 55.4187 36.6544C55.4187 37.9124 55.0535 39.0866 54.4239 40.0739Z" fill="white"/>
<path fill-rule="evenodd" clip-rule="evenodd" d="M63.8933 41.2609C62.5034 42.585 60.6271 43.4159 58.5547 43.4643L58.7836 43.7386C59.1654 44.2355 59.5301 44.9327 59.8621 45.7622C60.1942 46.591 60.4928 47.5534 60.6584 48.4824C60.8241 49.4106 60.8575 50.3069 60.8738 50.9864C60.8909 51.6666 60.8909 52.1315 60.8241 52.5793C60.758 53.0271 60.6257 53.4578 60.3264 53.8892C60.1039 54.2105 59.7896 54.5325 59.4178 54.8118H62.8084C64.1357 54.8118 65.2306 54.8118 66.093 54.696C66.9561 54.5801 67.5867 54.3477 68.1342 54.0158C68.6816 53.6845 69.1459 53.2531 69.4445 52.8217C69.7438 52.3902 69.876 51.9595 69.9421 51.5117C70.009 51.0639 70.009 50.5991 69.9919 49.9188C69.9755 49.2393 69.9421 48.343 69.7765 47.4148C69.6108 46.4858 69.3122 45.5234 68.9802 44.6946C68.6482 43.8652 68.2835 43.1679 67.9017 42.671C67.5206 42.1728 67.1218 41.8743 66.7904 41.6752C66.4584 41.4762 66.1932 41.3767 65.9608 41.2943C65.7283 41.2111 65.5292 41.1443 65.3138 41.1116C65.0976 41.0782 64.8659 41.0782 64.6263 41.1088C64.3867 41.1393 64.14 41.1997 63.8933 41.2609Z" fill="white"/>
<defs>
<filter id="filter0_d_5_1248" x="0" y="0" width="106" height="106" filterUnits="userSpaceOnUse" color-interpolation-filters="sRGB">
<feFlood flood-opacity="0" result="BackgroundImageFix"/>
<feColorMatrix in="SourceAlpha" type="matrix" values="0 0 0 0 0 0 0 0 0 0 0 0 0 0 0 0 0 0 127 0" result="hardAlpha"/>
<feMorphology radius="2" operator="erode" in="SourceAlpha" result="effect1_dropShadow_5_1248"/>
<feOffset dy="10"/>
<feGaussianBlur stdDeviation="11"/>
<feColorMatrix type="matrix" values="0 0 0 0 0.427083 0 0 0 0 0.671455 0 0 0 0 1 0 0 0 0.36 0"/>
<feBlend mode="normal" in2="BackgroundImageFix" result="effect1_dropShadow_5_1248"/>
<feBlend mode="normal" in="SourceGraphic" in2="effect1_dropShadow_5_1248" result="shape"/>
</filter>
<linearGradient id="paint0_linear_5_1248" x1="33.5" y1="10" x2="65" y2="76" gradientUnits="userSpaceOnUse">
<stop stop-color="#5CA1FE"/>
<stop offset="1" stop-color="#217BF4"/>
</linearGradient>
</defs>
</svg>
