<svg width="106" height="106" viewBox="0 0 106 106" fill="none" xmlns="http://www.w3.org/2000/svg">
<g filter="url(#filter0_d_5_1259)">
<rect x="20" y="10" width="66" height="66" rx="24" fill="url(#paint0_linear_5_1259)"/>
</g>
<path d="M70 39.9332V49.523C69.9992 50.2164 69.7234 50.8812 69.2331 51.3715C68.7428 51.8618 68.078 52.1376 67.3846 52.1383H66.5128V55.6255C66.5127 55.7912 66.4654 55.9535 66.3765 56.0933C66.2876 56.2331 66.1606 56.3447 66.0106 56.415C65.8605 56.4853 65.6936 56.5114 65.5292 56.4902C65.3649 56.4691 65.2099 56.4016 65.0826 56.2956L60.0944 52.1383H51.6923C50.9989 52.1376 50.3341 51.8618 49.8438 51.3715C49.3535 50.8812 49.0777 50.2164 49.0769 49.523V48.6512H57.7949C58.9505 48.6498 60.0585 48.1901 60.8756 47.3729C61.6928 46.5558 62.1525 45.4478 62.1538 44.2922V37.3178H67.3846C68.078 37.3186 68.7428 37.5944 69.2331 38.0847C69.7234 38.575 69.9992 39.2398 70 39.9332V39.9332ZM57.7949 46.9076H45.9908L41.0205 52.705C40.9046 52.8401 40.7501 52.9364 40.5778 52.9811C40.4055 53.0258 40.2237 53.0166 40.0568 52.9549C39.8898 52.8932 39.7458 52.7819 39.6439 52.6359C39.5421 52.49 39.4874 52.3163 39.4872 52.1383V46.9076H38.6154C37.922 46.9068 37.2572 46.631 36.7669 46.1407C36.2766 45.6504 36.0008 44.9856 36 44.2922V32.0871C36.0008 31.3937 36.2766 30.7289 36.7669 30.2385C37.2572 29.7482 37.922 29.4724 38.6154 29.4717H57.7949C58.4883 29.4724 59.1531 29.7482 59.6434 30.2385C60.1337 30.7289 60.4095 31.3937 60.4103 32.0871V44.2922C60.4095 44.9856 60.1337 45.6504 59.6434 46.1407C59.1531 46.631 58.4883 46.9068 57.7949 46.9076V46.9076ZM55.1795 39.9332C55.1795 39.702 55.0876 39.4803 54.9241 39.3168C54.7607 39.1533 54.5389 39.0614 54.3077 39.0614H42.1026C41.8713 39.0614 41.6496 39.1533 41.4861 39.3168C41.3226 39.4803 41.2308 39.702 41.2308 39.9332C41.2308 40.1644 41.3226 40.3862 41.4861 40.5497C41.6496 40.7132 41.8713 40.805 42.1026 40.805H54.3077C54.5389 40.805 54.7607 40.7132 54.9241 40.5497C55.0876 40.3862 55.1795 40.1644 55.1795 39.9332ZM55.1795 35.5742C55.1795 35.343 55.0876 35.1213 54.9241 34.9578C54.7607 34.7943 54.5389 34.7024 54.3077 34.7024H42.1026C41.8713 34.7024 41.6496 34.7943 41.4861 34.9578C41.3226 35.1213 41.2308 35.343 41.2308 35.5742C41.2308 35.8055 41.3226 36.0272 41.4861 36.1907C41.6496 36.3542 41.8713 36.446 42.1026 36.446H54.3077C54.5389 36.446 54.7607 36.3542 54.9241 36.1907C55.0876 36.0272 55.1795 35.8055 55.1795 35.5742Z" fill="white"/>
<defs>
<filter id="filter0_d_5_1259" x="0" y="0" width="106" height="106" filterUnits="userSpaceOnUse" color-interpolation-filters="sRGB">
<feFlood flood-opacity="0" result="BackgroundImageFix"/>
<feColorMatrix in="SourceAlpha" type="matrix" values="0 0 0 0 0 0 0 0 0 0 0 0 0 0 0 0 0 0 127 0" result="hardAlpha"/>
<feMorphology radius="2" operator="erode" in="SourceAlpha" result="effect1_dropShadow_5_1259"/>
<feOffset dy="10"/>
<feGaussianBlur stdDeviation="11"/>
<feColorMatrix type="matrix" values="0 0 0 0 0.97947 0 0 0 0 0.730307 0 0 0 0 0.328531 0 0 0 0.3 0"/>
<feBlend mode="normal" in2="BackgroundImageFix" result="effect1_dropShadow_5_1259"/>
<feBlend mode="normal" in="SourceGraphic" in2="effect1_dropShadow_5_1259" result="shape"/>
</filter>
<linearGradient id="paint0_linear_5_1259" x1="33.5" y1="10" x2="65" y2="76" gradientUnits="userSpaceOnUse">
<stop stop-color="#FFD085"/>
<stop offset="1" stop-color="#FFAF2E"/>
</linearGradient>
</defs>
</svg>
